<?xml version="1.0" standalone="no"?>
<!DOCTYPE svg PUBLIC "-//W3C//DTD SVG 20010904//EN"
 "http://www.w3.org/TR/2001/REC-SVG-20010904/DTD/svg10.dtd">
<svg version="1.0" xmlns="http://www.w3.org/2000/svg"
 width="200.000000pt" height="200.000000pt" viewBox="0 0 200.000000 200.000000"
 preserveAspectRatio="xMidYMid meet">

<g transform="translate(0.000000,200.000000) scale(0.100000,-0.100000)"
fill="#000000" stroke="none">
<path d="M825 1854 c-121 -29 -209 -75 -251 -129 -15 -20 -25 -37 -23 -40 7
-6 204 -36 281 -42 119 -10 427 39 494 79 19 11 34 21 34 23 0 11 -101 57
-149 66 -47 10 -65 9 -106 -4 -28 -8 -63 -18 -78 -21 l-28 -7 30 30 c16 16 35
31 43 34 28 10 -1 15 -97 19 -59 3 -121 -1 -150 -8z"/>
<path d="M1430 1704 c-25 -7 -61 -13 -81 -13 -20 -1 -78 -10 -130 -20 -52 -11
-134 -25 -184 -32 -115 -15 -125 -18 -105 -29 42 -23 330 -52 330 -33 0 4 -12
17 -27 30 l-28 23 45 -16 c56 -19 240 -36 300 -28 73 10 35 -14 -51 -32 -131
-28 -432 0 -674 63 -142 37 -241 37 -316 0 -62 -30 -182 -134 -204 -177 -23
-45 -35 -113 -28 -168 l6 -50 46 33 c86 62 205 76 531 60 181 -8 215 -14 390
-66 36 -10 73 -19 81 -19 9 0 27 -8 40 -18 25 -19 198 -76 260 -87 31 -5 39
-2 53 21 10 14 20 40 23 59 4 28 -1 39 -33 75 -35 39 -39 48 -42 110 -3 53 0
78 17 115 27 62 26 73 -11 114 -23 26 -155 107 -162 100 0 -1 -21 -7 -46 -15z"/>
<path d="M495 1299 c-79 -7 -96 -15 -144 -71 -51 -57 -52 -83 -5 -129 37 -35
119 -139 127 -161 3 -9 9 -8 19 6 27 35 51 16 73 -59 29 -96 31 -100 75 -130
30 -21 50 -26 99 -27 35 0 67 4 74 11 6 6 18 11 27 11 38 0 81 75 85 148 2 39
9 60 21 69 17 12 17 13 -3 13 -11 0 -31 11 -45 25 -17 17 -48 29 -99 40 -79
17 -138 13 -177 -12 -26 -16 -84 -14 -89 4 -7 19 80 92 167 141 19 10 58 32
85 48 28 16 62 36 78 43 15 8 27 18 27 23 0 13 -283 18 -395 7z"/>
<path d="M1395 1170 c-3 -5 6 -32 20 -59 14 -28 25 -57 25 -66 0 -24 -26 -29
-63 -12 -57 26 -133 40 -156 28 -11 -6 -34 -11 -51 -11 -19 0 -50 -14 -82 -36
-49 -33 -52 -38 -50 -72 7 -88 33 -144 84 -177 74 -49 177 -43 233 13 32 32
43 57 59 132 9 45 15 55 31 55 15 0 21 -8 23 -30 3 -36 22 -85 32 -85 8 0 30
46 30 64 0 8 -7 19 -16 26 -8 8 -14 25 -12 39 2 19 10 27 33 31 37 8 75 28 75
40 0 5 -10 20 -22 33 -27 28 -185 99 -193 87z"/>
<path d="M810 549 c0 -27 -3 -31 -22 -26 -35 9 -58 -9 -58 -47 0 -42 15 -55
63 -53 l37 1 0 78 c0 45 -4 78 -10 78 -5 0 -10 -14 -10 -31z m-6 -62 c13 -21
-15 -53 -38 -44 -19 8 -21 38 -4 55 15 15 28 11 42 -11z"/>
<path d="M920 502 l0 -78 40 -1 c30 -2 43 3 55 20 20 29 19 43 -5 67 -14 14
-28 18 -45 14 -23 -6 -25 -3 -25 25 0 17 -4 31 -10 31 -6 0 -10 -33 -10 -78z
m64 2 c21 -8 21 -53 0 -61 -8 -3 -22 1 -31 9 -12 12 -13 20 -4 37 13 23 13 23
35 15z"/>
<path d="M1178 533 c-2 -33 4 -78 13 -95 10 -19 39 -25 39 -8 0 6 -4 10 -10
10 -15 0 -12 57 3 64 10 5 10 7 0 12 -7 3 -13 12 -13 20 0 20 -30 17 -32 -3z"/>
<path d="M1072 514 c-26 -18 -29 -56 -6 -78 34 -35 84 -11 84 40 0 28 -5 36
-26 44 -31 12 -25 13 -52 -6z m48 -19 c17 -20 8 -50 -14 -50 -27 0 -43 29 -27
49 17 20 25 20 41 1z"/>
<path d="M862 439 c2 -6 8 -10 13 -10 5 0 11 4 13 10 2 6 -4 11 -13 11 -9 0
-15 -5 -13 -11z"/>
</g>
</svg>
